<svg viewBox="0 0 828 1021" xmlns="http://www.w3.org/2000/svg"><path d="m444.8 504.6 49.7 61.6c14.9-44.8-5-107.4-27.2-154.2-5.3 29.1-12.7 59.9-22.5 92.6zM340 338.8c-22.1 21.2-41.9 60.8-27 122.7l49.6-4.2c-9.8-44-17.2-83.3-22.6-118.5z" fill="#fbcd22"/><linearGradient id="a" gradientUnits="userSpaceOnUse" x1="548.2" y1="45.03" x2="237.349" y2="583.583"><stop offset="0" stop-color="#fff"/><stop offset="1" stop-color="#fff" stop-opacity="0"/></linearGradient><path d="M387.6 559.3C264 84.7 365.7 44.4 404.1 28.2c38.4 60.6 140 218.2 16.3 550l-32.8-18.9z" opacity=".2" fill="url(#a)" class="M"/><linearGradient id="b" gradientUnits="userSpaceOnUse" x1="584.583" y1="17.733" x2="273.732" y2="556.286"><stop offset="0" stop-color="#fff"/><stop offset="1" stop-color="#fff" stop-opacity="0"/></linearGradient><path d="M424 532C300.4 57.5 402 17.1 440.5.9c38.4 60.6 140 218.2 16.3 550L424 532z" opacity=".1" fill="url(#b)" class="M"/><linearGradient id="c" gradientUnits="userSpaceOnUse" x1="490.244" y1="162.472" x2="250.281" y2="595.452"><stop offset="0" stop-color="#fff" stop-opacity="0"/><stop offset="1" stop-color="#fff"/></linearGradient><path d="M420.4 578.2c123.7-331.8 22.1-489.4-16.3-550v540.6l16.3 9.4z" fill="url(#c)" class="M O" style="opacity:.15"/><path d="M440.9 195.3c0 28.9-17 42.5-38 30.4s-38-45.4-38-74.3 17-42.5 38-30.4 38 45.4 38 74.3z" opacity=".1" fill="#fff" class="M"/><linearGradient id="d" gradientUnits="userSpaceOnUse" x1="467.715" y1="684.856" x2="333.452" y2="917.469"><stop offset="0" stop-color="#fff"/><stop offset="1" stop-color="#fff" stop-opacity="0"/></linearGradient><path d="M433.4 685.6c-8.7-14.2-12.9-32.2-16.6-48-4.3-18.2-7.9-33.7-16.9-37.6-10.3-4.5-14.9 6.9-21.4 22.7-3.8 9.3-8.3 20.3-14.9 30.4-7.1-7.5-14.6-13.7-22.5-18.2-33.1-19.1-60.7-2.6-67.2 36.8-4.5-3.4-9-6.5-13.6-9.2-53.1-30.6-96.1 4.1-96.1 77.7 0 73.5 43 157.9 96 188.5 51.5 29.7 93.6-2.2 96-71.3 9.7 18 22.6 33.1 36.9 41.3 3.7 2.1 7.3 3.7 10.7 4.7 20.6 45.3 51.3 84.3 85.6 104.1 62 35.8 112.3-4.6 112.4-90.2 0-85.6-50.3-184.1-112.3-219.9-20.5-11.8-39.6-15.4-56.1-11.8z" opacity=".1" fill="url(#d)" class="M"/><linearGradient id="e" gradientUnits="userSpaceOnUse" x1="649.598" y1="362.77" x2="684.598" y2="646.636"><stop offset="0" stop-color="#fff"/><stop offset="1" stop-color="#fff" stop-opacity="0"/></linearGradient><path d="M533.3 358.2 804 514.5l.1 141.1-246.8-142.5-23.9 7.8-.1-162.7z" opacity=".3" fill="url(#e)" class="M"/><path d="M725.3 539.3V501l102.2 59v38.3l-102.2-59z" class="N" style="fill:#fdeca9;fill-opacity:1"/><g fill="#fff" class="M"><path d="m602.9 432.7 59.3 34.2v12.4l-59.3-34.2v-12.4zm.1 24.8 107 61.8v12.4l-107-61.8v-12.4z" opacity=".1"/><path d="m603 482.3 138.5 80v12.4l-138.5-80v-12.4z" class="O" style="opacity:.1"/></g><path d="M588.3 437.2c0 11.6-6.9 17.1-15.4 12.2s-15.4-18.3-15.4-29.9 6.9-17.1 15.4-12.2c8.6 4.9 15.4 18.3 15.4 29.9z" class="N" style="fill:#fdeca9;fill-opacity:1"/><linearGradient id="f" gradientUnits="userSpaceOnUse" x1="240.783" y1="102.422" x2="101.001" y2="211.867"><stop offset="0" stop-color="#fff"/><stop offset="1" stop-color="#fff" stop-opacity="0"/></linearGradient><path d="M299.8 158.9 29.1 2.7l.1 141.1L276 286.2l23.9 35.4-.1-162.7z" opacity=".3" fill="url(#f)" class="M"/><path d="M.2 57.7V19.4l102.2 59v38.3L.2 57.7z" class="N" style="fill:#fdeca9;fill-opacity:1"/><path d="m230.2 153.1-59.3-34.2v12.4l59.3 34.2v-12.4zm0 24.8-114.3-66v12.4l114.3 66v-12.4zm0 24.8-138.5-80v12.4l138.5 80v-12.4z" class="O M" fill="#fff" style="opacity:.15"/><path d="M244.8 174.4c0 11.6 6.9 25 15.4 29.9s15.4-.6 15.4-12.2-6.9-25-15.4-29.9c-8.5-4.8-15.4.6-15.4 12.2z" class="N" style="fill:#fdeca9;fill-opacity:1"/><linearGradient id="g" gradientUnits="userSpaceOnUse" x1="201.185" y1="273.359" x2="164.715" y2="336.542"><stop offset="0" stop-color="#fff"/><stop offset="1" stop-color="#fff" stop-opacity="0"/></linearGradient><path d="m263.8 309.5-161.7-93.3v84.2l161.7 93.3v-84.2z" opacity=".2" fill="url(#g)" class="M"/><path d="m143.5 260.3 55.4 32v10.1l-55.4-32v-10.1zm0 20.3 103.6 59.8v10.2l-103.6-59.8v-10.2z" class="O M" fill="#fff" style="opacity:.15"/><path d="M135 263.3c0 6.9-4.1 10.2-9.2 7.3s-9.2-10.9-9.2-17.9c0-6.9 4.1-10.2 9.2-7.3 5 3 9.2 11 9.2 17.9z" class="N" style="fill:#fdeca9;fill-opacity:1"/><linearGradient id="h" gradientUnits="userSpaceOnUse" x1="681.406" y1="336.971" x2="644.908" y2="400.204"><stop offset="0" stop-color="#fff"/><stop offset="1" stop-color="#fff" stop-opacity="0"/></linearGradient><path d="m744 373.1-161.7-93.3V364L744 457.4v-84.3z" opacity=".2" fill="url(#h)" class="M"/><path d="m623.7 324 55.4 32v10.1l-55.4-32V324zm.1 20.3 103.6 59.8v10.2l-103.6-59.8v-10.2z" class="O M" fill="#fff" style="fill:#fff;fill-opacity:.15000001"/><path d="M615.2 327c0 6.9-4.1 10.2-9.2 7.3s-9.2-10.9-9.2-17.9c0-6.9 4.1-10.2 9.2-7.3 5.1 3 9.2 11 9.2 17.9z" class="N" style="fill:#fdeca9;fill-opacity:1"/></svg>