<?xml version="1.0" encoding="utf-8"?>
<!-- Generator: Adobe Illustrator 22.1.0, SVG Export Plug-In . SVG Version: 6.00 Build 0)  -->
<svg version="1.1" id="Слой_1" xmlns="http://www.w3.org/2000/svg" xmlns:xlink="http://www.w3.org/1999/xlink" x="0px" y="0px"
	 viewBox="0 0 729 854" style="enable-background:new 0 0 729 854;" xml:space="preserve">
<style type="text/css">
	.st0{opacity:0.2;fill:url(#SVGID_1_);enable-background:new    ;}
	.st1{fill:#F2C94C;}
	.st2{opacity:0.15;fill:#FFFFFF;enable-background:new    ;}
	.st3{opacity:7.000000e-02;fill:url(#SVGID_2_);enable-background:new    ;}
	.st4{opacity:0.3;fill:url(#SVGID_3_);enable-background:new    ;}
	.st5{fill:#F2994A;}
	.st6{opacity:0.2;fill:url(#SVGID_4_);enable-background:new    ;}
	.st7{opacity:0.3;fill:url(#SVGID_5_);enable-background:new    ;}
	.st8{opacity:0.3;fill:url(#SVGID_6_);enable-background:new    ;}
	.st9{opacity:0.2;fill:url(#SVGID_7_);enable-background:new    ;}
	.st10{opacity:5.000000e-02;fill:url(#SVGID_8_);enable-background:new    ;}
	.st11{opacity:0.3;fill:#FFFFFF;enable-background:new    ;}
</style>
<linearGradient id="SVGID_1_" gradientUnits="userSpaceOnUse" x1="551.6979" y1="551.5942" x2="589.3633" y2="486.3394" gradientTransform="matrix(1 0 0 -1 0 854)">
	<stop  offset="0" style="stop-color:#FFFFFF"/>
	<stop  offset="1" style="stop-color:#FFFFFF;stop-opacity:0"/>
</linearGradient>
<path class="st0" d="M487,339.7l167-96.4l0,87l-167,96.4L487,339.7z"/>
<path class="st1" d="M620.1,292.1c0,7.2,4.2,10.5,9.5,7.5c5.2-3,9.5-11.3,9.5-18.5c0-7.2-4.2-10.5-9.5-7.5
	C624.3,276.6,620.1,284.9,620.1,292.1z"/>
<path class="st2" d="M611.3,286.3l-60.9,35.1l0,13.6l60.9-35.1L611.3,286.3z"/>
<path class="st2" d="M611.2,315.5l-107,61.7l0,13.6l107-61.7L611.2,315.5z"/>
<linearGradient id="SVGID_2_" gradientUnits="userSpaceOnUse" x1="153.4622" y1="727.8657" x2="342.2622" y2="400.7694" gradientTransform="matrix(1 0 0 -1 0 854)">
	<stop  offset="0" style="stop-color:#FFFFFF"/>
	<stop  offset="1" style="stop-color:#FFFFFF;stop-opacity:0"/>
</linearGradient>
<path class="st3" d="M355.8,58.8L168.5,166.9l0,403.2l187.2-108.1L355.8,58.8z"/>
<linearGradient id="SVGID_3_" gradientUnits="userSpaceOnUse" x1="196.7343" y1="691.465" x2="385.5334" y2="364.3696" gradientTransform="matrix(1 0 0 -1 0 854)">
	<stop  offset="0" style="stop-color:#FFFFFF"/>
	<stop  offset="1" style="stop-color:#FFFFFF;stop-opacity:0"/>
</linearGradient>
<path class="st4" d="M399.1,95.2L211.8,203.3l0,403.2l187.2-108.1L399.1,95.2z"/>
<path class="st2" d="M381,319.9l-150.4,86.8l0,13.6L381,333.5L381,319.9z"/>
<path class="st2" d="M370.5,353l-129.3,74.7l0,13.6l129.3-74.7L370.5,353z"/>
<path class="st5" d="M448,406l0-45l-110.5,63.8l0,45L448,406z"/>
<linearGradient id="SVGID_4_" gradientUnits="userSpaceOnUse" x1="86.5198" y1="370.5356" x2="-38.7866" y2="322.5806" gradientTransform="matrix(1 0 0 -1 0 854)">
	<stop  offset="0" style="stop-color:#FFFFFF"/>
	<stop  offset="1" style="stop-color:#FFFFFF;stop-opacity:0"/>
</linearGradient>
<path class="st6" d="M62.5,396.4c8.6-13.7,20.5-15.5,21-15.6c1.2-0.2,1.9,0.9,1.9,2.5l0,36.2c0,12.3,4.2,20.2,12.5,23.6
	c0.8,0.3,1.3,1.2,1.3,2.4c0,17.4-0.3,92.1-0.4,115.4c0,3.9-2.7,8.5-6,10.4C75.1,581.6,24,611.1,24,611.1c-13.6,7.9-22.3,3-23.8-13.2
	L0,526.2c0-10.9,1.9-22.1,7.9-31.4c3.4-5.3,7.4-9.4,11.6-11.8l34.9-20.1l0-33.6C54.3,416.1,57.1,405.1,62.5,396.4z"/>
<path class="st1" d="M145.9,414.6l-39,22.5l0,127.6l39-22.5L145.9,414.6z"/>
<linearGradient id="SVGID_5_" gradientUnits="userSpaceOnUse" x1="496.2118" y1="744.358" x2="649.8628" y2="624.054" gradientTransform="matrix(1 0 0 -1 0 854)">
	<stop  offset="0" style="stop-color:#FFFFFF"/>
	<stop  offset="1" style="stop-color:#FFFFFF;stop-opacity:0"/>
</linearGradient>
<path class="st7" d="M431.3,171.8L728.9,0l-0.1,155.1L457.5,311.7l-26.3,38.9L431.3,171.8z"/>
<path class="st2" d="M507.8,165.3l65.2-37.6l0,13.6L507.8,179L507.8,165.3z"/>
<path class="st2" d="M507.8,192.6l161.5-93.2l0,13.6l-161.5,93.2L507.8,192.6z"/>
<path class="st2" d="M507.8,219.9l194.8-112.5l0,13.6L507.8,233.5L507.8,219.9z"/>
<path class="st5" d="M491.8,188.8c0,12.8-7.6,27.5-16.9,32.9c-9.3,5.4-16.9-0.6-16.9-13.4c0-12.8,7.6-27.5,16.9-32.9
	C484.2,170,491.8,176,491.8,188.8z"/>
<linearGradient id="SVGID_6_" gradientUnits="userSpaceOnUse" x1="175.1923" y1="322.6376" x2="136.7213" y2="10.6066" gradientTransform="matrix(1 0 0 -1 0 854)">
	<stop  offset="0" style="stop-color:#FFFFFF"/>
	<stop  offset="1" style="stop-color:#FFFFFF;stop-opacity:0"/>
</linearGradient>
<path class="st8" d="M303,526.3L5.5,698.1L5.4,853.2l271.3-156.6l26.2,8.6L303,526.3z"/>
<path class="st2" d="M226.5,608.3l-65.2,37.6l0,13.6l65.2-37.6L226.5,608.3z"/>
<path class="st2" d="M226.5,635.5l-117.7,67.9l0,13.6l117.7-67.9L226.5,635.5z"/>
<path class="st2" d="M226.5,662.8L74.2,750.7l0,13.6l152.3-87.9L226.5,662.8z"/>
<path class="st1" d="M242.5,613.2c0,12.8,7.6,18.8,16.9,13.4c9.3-5.4,16.9-20.1,16.9-32.9c0-12.8-7.6-18.8-16.9-13.4
	C250.1,585.7,242.5,600.4,242.5,613.2z"/>
<linearGradient id="SVGID_7_" gradientUnits="userSpaceOnUse" x1="385.1405" y1="315.3235" x2="437.4975" y2="274.0036" gradientTransform="matrix(1 0 0 -1 0 854)">
	<stop  offset="0" style="stop-color:#FFFFFF"/>
	<stop  offset="1" style="stop-color:#FFFFFF;stop-opacity:0"/>
</linearGradient>
<path class="st9" d="M406,499.7c-6,3.4-10.8,11.8-10.8,18.7l0,30.5L375,560.5c-6,3.4-10.8,11.8-10.8,18.7c0,6.9,4.8,9.7,10.8,6.3
	l20.2-11.6l0,30.5c0,6.9,4.8,9.7,10.8,6.3c6-3.4,10.8-11.8,10.8-18.7l0-30.5l20.2-11.6c6-3.4,10.8-11.8,10.8-18.7s-4.8-9.7-10.8-6.3
	l-20.2,11.6l0-30.5C416.9,499.1,412,496.2,406,499.7z"/>
<linearGradient id="SVGID_8_" gradientUnits="userSpaceOnUse" x1="287.5525" y1="631.0933" x2="351.6535" y2="576.2843" gradientTransform="matrix(1 0 0 -1 0 854)">
	<stop  offset="0" style="stop-color:#FFFFFF"/>
	<stop  offset="1" style="stop-color:#FFFFFF;stop-opacity:0"/>
</linearGradient>
<path class="st10" d="M305.9,305c85.8-111.6,23.7-152,0-86.6C282.1,180.8,220,293.5,305.9,305z"/>
<path class="st11" d="M325.9,325c85.8-111.6,23.7-152,0-86.6C302.1,200.8,240,313.5,325.9,325z"/>
</svg>
