<svg viewBox="0 0 729 854" style="enable-background:new 0 0 729 854" xml:space="preserve" xmlns="http://www.w3.org/2000/svg"><linearGradient id="a" gradientUnits="userSpaceOnUse" x1="551.698" y1="551.594" x2="589.363" y2="486.339" gradientTransform="matrix(1 0 0 -1 0 854)"><stop offset="0" style="stop-color:#fff"/><stop offset="1" style="stop-color:#fff;stop-opacity:0"/></linearGradient><path d="m487 339.7 167-96.4v87l-167 96.4v-87z" style="opacity:.2;fill:url(#a);enable-background:new"/><path class="st1" d="M620.1 292.1c0 7.2 4.2 10.5 9.5 7.5 5.2-3 9.5-11.3 9.5-18.5 0-7.2-4.2-10.5-9.5-7.5s-9.5 11.3-9.5 18.5z" style="fill:#fcd74f;fill-opacity:1"/><path class="st2" d="m611.3 286.3-60.9 35.1V335l60.9-35.1v-13.6zM611.2 315.5l-107 61.7v13.6l107-61.7v-13.6z" style="fill:#fff;fill-opacity:.14736363"/><linearGradient id="b" gradientUnits="userSpaceOnUse" x1="153.462" y1="727.866" x2="342.262" y2="400.769" gradientTransform="matrix(1 0 0 -1 0 854)"><stop offset="0" style="stop-color:#fff"/><stop offset="1" style="stop-color:#fff;stop-opacity:0"/></linearGradient><path d="M355.8 58.8 168.5 166.9v403.2L355.7 462l.1-403.2z" style="opacity:7.000000e-02;fill:url(#b);enable-background:new"/><linearGradient id="c" gradientUnits="userSpaceOnUse" x1="196.734" y1="691.465" x2="385.533" y2="364.37" gradientTransform="matrix(1 0 0 -1 0 854)"><stop offset="0" style="stop-color:#fff"/><stop offset="1" style="stop-color:#fff;stop-opacity:0"/></linearGradient><path d="M399.1 95.2 211.8 203.3v403.2L399 498.4l.1-403.2z" style="opacity:.3;fill:url(#c);enable-background:new"/><path class="st2" d="m381 319.9-150.4 86.8v13.6L381 333.5v-13.6zM370.5 353l-129.3 74.7v13.6l129.3-74.7V353z" style="fill:#fff;fill-opacity:.14736363"/><path class="st5" d="M448 406v-45l-110.5 63.8v45L448 406z" style="fill:#f5c510;fill-opacity:1"/><linearGradient id="d" gradientUnits="userSpaceOnUse" x1="86.52" y1="370.536" x2="-38.787" y2="322.581" gradientTransform="matrix(1 0 0 -1 0 854)"><stop offset="0" style="stop-color:#fff"/><stop offset="1" style="stop-color:#fff;stop-opacity:0"/></linearGradient><path d="M62.5 396.4c8.6-13.7 20.5-15.5 21-15.6 1.2-.2 1.9.9 1.9 2.5v36.2c0 12.3 4.2 20.2 12.5 23.6.8.3 1.3 1.2 1.3 2.4 0 17.4-.3 92.1-.4 115.4 0 3.9-2.7 8.5-6 10.4C75.1 581.6 24 611.1 24 611.1c-13.6 7.9-22.3 3-23.8-13.2L0 526.2c0-10.9 1.9-22.1 7.9-31.4 3.4-5.3 7.4-9.4 11.6-11.8l34.9-20.1v-33.6c-.1-13.2 2.7-24.2 8.1-32.9z" style="opacity:.2;fill:url(#d);enable-background:new"/><path class="st1" d="m145.9 414.6-39 22.5v127.6l39-22.5V414.6z" style="fill:#fcd74f;fill-opacity:1"/><linearGradient id="e" gradientUnits="userSpaceOnUse" x1="496.212" y1="744.358" x2="649.863" y2="624.054" gradientTransform="matrix(1 0 0 -1 0 854)"><stop offset="0" style="stop-color:#fff"/><stop offset="1" style="stop-color:#fff;stop-opacity:0"/></linearGradient><path d="M431.3 171.8 728.9 0l-.1 155.1-271.3 156.6-26.3 38.9.1-178.8z" style="opacity:.3;fill:url(#e);enable-background:new"/><path class="st2" d="m507.8 165.3 65.2-37.6v13.6L507.8 179v-13.7zM507.8 192.6l161.5-93.2V113l-161.5 93.2v-13.6zM507.8 219.9l194.8-112.5V121L507.8 233.5v-13.6z" style="fill:#fff;fill-opacity:.14736363"/><path class="st5" d="M491.8 188.8c0 12.8-7.6 27.5-16.9 32.9-9.3 5.4-16.9-.6-16.9-13.4s7.6-27.5 16.9-32.9c9.3-5.4 16.9.6 16.9 13.4z" style="fill:#f5c510;fill-opacity:1"/><linearGradient id="f" gradientUnits="userSpaceOnUse" x1="175.192" y1="322.638" x2="136.721" y2="10.607" gradientTransform="matrix(1 0 0 -1 0 854)"><stop offset="0" style="stop-color:#fff"/><stop offset="1" style="stop-color:#fff;stop-opacity:0"/></linearGradient><path d="M303 526.3 5.5 698.1l-.1 155.1 271.3-156.6 26.2 8.6.1-178.9z" style="opacity:.3;fill:url(#f);enable-background:new"/><path class="st2" d="m226.5 608.3-65.2 37.6v13.6l65.2-37.6v-13.6zM226.5 635.5l-117.7 67.9V717l117.7-67.9v-13.6zM226.5 662.8 74.2 750.7v13.6l152.3-87.9v-13.6z" style="fill:#fff;fill-opacity:.14736363"/><path class="st1" d="M242.5 613.2c0 12.8 7.6 18.8 16.9 13.4 9.3-5.4 16.9-20.1 16.9-32.9 0-12.8-7.6-18.8-16.9-13.4-9.3 5.4-16.9 20.1-16.9 32.9z" style="fill:#fcd74f;fill-opacity:1"/><linearGradient id="g" gradientUnits="userSpaceOnUse" x1="385.14" y1="315.324" x2="437.498" y2="274.004" gradientTransform="matrix(1 0 0 -1 0 854)"><stop offset="0" style="stop-color:#fff"/><stop offset="1" style="stop-color:#fff;stop-opacity:0"/></linearGradient><path d="M406 499.7c-6 3.4-10.8 11.8-10.8 18.7v30.5L375 560.5c-6 3.4-10.8 11.8-10.8 18.7 0 6.9 4.8 9.7 10.8 6.3l20.2-11.6v30.5c0 6.9 4.8 9.7 10.8 6.3 6-3.4 10.8-11.8 10.8-18.7v-30.5l20.2-11.6c6-3.4 10.8-11.8 10.8-18.7s-4.8-9.7-10.8-6.3l-20.2 11.6V506c.1-6.9-4.8-9.8-10.8-6.3z" style="opacity:.2;fill:url(#g);enable-background:new"/><linearGradient id="h" gradientUnits="userSpaceOnUse" x1="287.553" y1="631.093" x2="351.654" y2="576.284" gradientTransform="matrix(1 0 0 -1 0 854)"><stop offset="0" style="stop-color:#fff"/><stop offset="1" style="stop-color:#fff;stop-opacity:0"/></linearGradient><path d="M305.9 305c85.8-111.6 23.7-152 0-86.6-23.8-37.6-85.9 75.1 0 86.6z" style="opacity:5.000000e-02;fill:url(#h);enable-background:new"/><path d="M325.9 325c85.8-111.6 23.7-152 0-86.6-23.8-37.6-85.9 75.1 0 86.6z" style="opacity:.3;fill:#fff;enable-background:new"/></svg>