<svg
   version="1.1"
   id="illustration"
   x="0px"
   y="0px"
   viewBox="0 0 828 1021"
   style="enable-background:new 0 0 828 1021;"
   xml:space="preserve"
   sodipodi:docname="lucid-illustration-rocket.svg"
   inkscape:version="1.1.1 (3bf5ae0d25, 2021-09-20)"
   xmlns:inkscape="http://www.inkscape.org/namespaces/inkscape"
   xmlns:sodipodi="http://sodipodi.sourceforge.net/DTD/sodipodi-0.dtd"
   xmlns="http://www.w3.org/2000/svg"
   xmlns:svg="http://www.w3.org/2000/svg"><defs
   id="defs101" /><sodipodi:namedview
   id="namedview99"
   pagecolor="#ffffff"
   bordercolor="#666666"
   borderopacity="1.0"
   inkscape:pageshadow="2"
   inkscape:pageopacity="0.0"
   inkscape:pagecheckerboard="0"
   showgrid="false"
   inkscape:zoom="0.51714006"
   inkscape:cx="413.81439"
   inkscape:cy="376.10701"
   inkscape:window-width="1128"
   inkscape:window-height="694"
   inkscape:window-x="0"
   inkscape:window-y="0"
   inkscape:window-maximized="1"
   inkscape:current-layer="illustration" />
<style
   type="text/css"
   id="style2">
	.st0{fill:#F2C94C;}
	.st1{fill:#F2994A;}
	.st2{opacity:0.2;fill:url(#SVGID_1_);enable-background:new    ;}
	.st3{opacity:0.1;fill:url(#SVGID_2_);enable-background:new    ;}
	.st4{opacity:0.15;fill:url(#SVGID_3_);enable-background:new    ;}
	.st5{opacity:0.1;fill:#FFFFFF;enable-background:new    ;}
	.st6{opacity:0.1;fill:url(#SVGID_4_);enable-background:new    ;}
	.st7{opacity:0.3;fill:url(#SVGID_5_);enable-background:new    ;}
	.st8{opacity:0.15;fill:#FFFFFF;enable-background:new    ;}
	.st9{opacity:0.3;fill:url(#SVGID_6_);enable-background:new    ;}
	.st10{opacity:0.2;fill:url(#SVGID_7_);enable-background:new    ;}
	.st11{opacity:0.2;fill:url(#SVGID_8_);enable-background:new    ;}
</style>
<path
   class="st0"
   d="M444.8,504.6c17.2,21.5,36.3,45.1,49.7,61.6c14.9-44.8-5-107.4-27.2-154.2C462,441.1,454.6,471.9,444.8,504.6z"
   id="path4"
   style="fill:#fbcd22;fill-opacity:1" />
<path
   class="st1"
   d="M340,338.8c-22.1,21.2-41.9,60.8-27,122.7c13.4-1.1,32.4-2.6,49.6-4.2C352.8,413.3,345.4,374,340,338.8z"
   id="path6"
   style="fill:#fbcd22;fill-opacity:1" />
<linearGradient
   id="SVGID_1_"
   gradientUnits="userSpaceOnUse"
   x1="548.2"
   y1="-184.9704"
   x2="237.3486"
   y2="353.5829"
   gradientTransform="matrix(1 0 0 1 0 230)">
	<stop
   offset="0"
   style="stop-color:#FFFFFF"
   id="stop8" />
	<stop
   offset="1"
   style="stop-color:#FFFFFF;stop-opacity:0"
   id="stop10" />
</linearGradient>
<path
   class="st2"
   d="M387.6,559.3C264,84.7,365.7,44.4,404.1,28.2c38.4,60.6,140,218.2,16.3,550L387.6,559.3z"
   id="path13" />
<linearGradient
   id="SVGID_2_"
   gradientUnits="userSpaceOnUse"
   x1="584.5826"
   y1="-212.2671"
   x2="273.7317"
   y2="326.2856"
   gradientTransform="matrix(1 0 0 1 0 230)">
	<stop
   offset="0"
   style="stop-color:#FFFFFF"
   id="stop15" />
	<stop
   offset="1"
   style="stop-color:#FFFFFF;stop-opacity:0"
   id="stop17" />
</linearGradient>
<path
   class="st3"
   d="M424,532C300.4,57.5,402,17.1,440.5,0.9c38.4,60.6,140,218.2,16.3,550L424,532z"
   id="path20" />
<linearGradient
   id="SVGID_3_"
   gradientUnits="userSpaceOnUse"
   x1="490.2435"
   y1="-67.5285"
   x2="250.2805"
   y2="365.4515"
   gradientTransform="matrix(1 0 0 1 0 230)">
	<stop
   offset="0"
   style="stop-color:#FFFFFF;stop-opacity:0"
   id="stop22" />
	<stop
   offset="1"
   style="stop-color:#FFFFFF"
   id="stop24" />
</linearGradient>
<path
   class="st4"
   d="M420.4,578.2c123.7-331.8,22.1-489.4-16.3-550v540.6L420.4,578.2z"
   id="path27" />
<path
   class="st5"
   d="M440.9,195.3c0,28.9-17,42.5-38,30.4s-38-45.4-38-74.3s17-42.5,38-30.4C423.9,133.1,440.9,166.4,440.9,195.3z"
   id="path29" />
<linearGradient
   id="SVGID_4_"
   gradientUnits="userSpaceOnUse"
   x1="467.7154"
   y1="454.856"
   x2="333.4524"
   y2="687.4689"
   gradientTransform="matrix(1 0 0 1 0 230)">
	<stop
   offset="0"
   style="stop-color:#FFFFFF"
   id="stop31" />
	<stop
   offset="1"
   style="stop-color:#FFFFFF;stop-opacity:0"
   id="stop33" />
</linearGradient>
<path
   class="st6"
   d="M433.4,685.6c-8.7-14.2-12.9-32.2-16.6-48c-4.3-18.2-7.9-33.7-16.9-37.6c-10.3-4.5-14.9,6.9-21.4,22.7l0,0  c-3.8,9.3-8.3,20.3-14.9,30.4c-7.1-7.5-14.6-13.7-22.5-18.2c-33.1-19.1-60.7-2.6-67.2,36.8c-4.5-3.4-9-6.5-13.6-9.2  c-53.1-30.6-96.1,4.1-96.1,77.7c0,73.5,43,157.9,96,188.5c51.5,29.7,93.6-2.2,96-71.3c9.7,18,22.6,33.1,36.9,41.3  c3.7,2.1,7.3,3.7,10.7,4.7c20.6,45.3,51.3,84.3,85.6,104.1c62,35.8,112.3-4.6,112.4-90.2c0-85.6-50.3-184.1-112.3-219.9  C469,685.6,449.9,682,433.4,685.6z"
   id="path36" />
<linearGradient
   id="SVGID_5_"
   gradientUnits="userSpaceOnUse"
   x1="649.5975"
   y1="132.7704"
   x2="684.5975"
   y2="416.6364"
   gradientTransform="matrix(1 0 0 1 0 230)">
	<stop
   offset="0"
   style="stop-color:#FFFFFF"
   id="stop38" />
	<stop
   offset="1"
   style="stop-color:#FFFFFF;stop-opacity:0"
   id="stop40" />
</linearGradient>
<path
   class="st7"
   d="M533.3,358.2L804,514.5l0.1,141.1L557.3,513.1l-23.9,7.8L533.3,358.2z"
   id="path43" />
<path
   class="st0"
   d="M725.3,539.3V501l102.2,59v38.3L725.3,539.3z"
   id="path45"
   style="fill:#fdedaf;fill-opacity:1" />
<path
   class="st5"
   d="M602.9,432.7l59.3,34.2v12.4l-59.3-34.2V432.7z"
   id="path47" />
<path
   class="st5"
   d="M603,457.5l107,61.8v12.4l-107-61.8V457.5z"
   id="path49" />
<path
   class="st8"
   d="M603,482.3l138.5,80v12.4l-138.5-80V482.3z"
   id="path51" />
<path
   class="st0"
   d="M588.3,437.2c0,11.6-6.9,17.1-15.4,12.2s-15.4-18.3-15.4-29.9s6.9-17.1,15.4-12.2  C581.5,412.2,588.3,425.6,588.3,437.2z"
   id="path53"
   style="fill:#fdedaf;fill-opacity:1" />
<linearGradient
   id="SVGID_6_"
   gradientUnits="userSpaceOnUse"
   x1="240.7834"
   y1="-127.5776"
   x2="101.0014"
   y2="-18.1326"
   gradientTransform="matrix(1 0 0 1 0 230)">
	<stop
   offset="0"
   style="stop-color:#FFFFFF"
   id="stop55" />
	<stop
   offset="1"
   style="stop-color:#FFFFFF;stop-opacity:0"
   id="stop57" />
</linearGradient>
<path
   class="st9"
   d="M299.8,158.9L29.1,2.7l0.1,141.1L276,286.2l23.9,35.4L299.8,158.9z"
   id="path60" />
<path
   class="st1"
   d="M0.2,57.7V19.4l102.2,59v38.3L0.2,57.7z"
   id="path62"
   style="fill:#fdedaf;fill-opacity:1" />
<path
   class="st8"
   d="M230.2,153.1l-59.3-34.2v12.4l59.3,34.2V153.1z"
   id="path64" />
<path
   class="st8"
   d="M230.2,177.9l-114.3-66v12.4l114.3,66V177.9z"
   id="path66" />
<path
   class="st8"
   d="M230.2,202.7l-138.5-80v12.4l138.5,80V202.7z"
   id="path68" />
<path
   class="st1"
   d="M244.8,174.4c0,11.6,6.9,25,15.4,29.9c8.5,4.9,15.4-0.6,15.4-12.2c0-11.6-6.9-25-15.4-29.9  C251.7,157.4,244.8,162.8,244.8,174.4z"
   id="path70"
   style="fill:#fdedaf;fill-opacity:1" />
<linearGradient
   id="SVGID_7_"
   gradientUnits="userSpaceOnUse"
   x1="201.1846"
   y1="43.3585"
   x2="164.7154"
   y2="106.5415"
   gradientTransform="matrix(1 0 0 1 0 230)">
	<stop
   offset="0"
   style="stop-color:#FFFFFF"
   id="stop72" />
	<stop
   offset="1"
   style="stop-color:#FFFFFF;stop-opacity:0"
   id="stop74" />
</linearGradient>
<path
   class="st10"
   d="M263.8,309.5l-161.7-93.3v84.2l161.7,93.3V309.5z"
   id="path77" />
<path
   class="st8"
   d="M143.5,260.3l55.4,32v10.1l-55.4-32V260.3z"
   id="path79" />
<path
   class="st8"
   d="M143.5,280.6l103.6,59.8v10.2l-103.6-59.8V280.6z"
   id="path81" />
<path
   class="st1"
   d="M135,263.3c0,6.9-4.1,10.2-9.2,7.3c-5.1-2.9-9.2-10.9-9.2-17.9c0-6.9,4.1-10.2,9.2-7.3  C130.8,248.4,135,256.4,135,263.3z"
   id="path83"
   style="fill:#fdedaf;fill-opacity:1" />
<linearGradient
   id="SVGID_8_"
   gradientUnits="userSpaceOnUse"
   x1="681.4062"
   y1="106.971"
   x2="644.908"
   y2="170.2043"
   gradientTransform="matrix(1 0 0 1 0 230)">
	<stop
   offset="0"
   style="stop-color:#FFFFFF"
   id="stop85" />
	<stop
   offset="1"
   style="stop-color:#FFFFFF;stop-opacity:0"
   id="stop87" />
</linearGradient>
<path
   class="st11"
   d="M744,373.1l-161.7-93.3V364L744,457.4V373.1z"
   id="path90" />
<path
   class="st8"
   d="M623.7,324l55.4,32v10.1l-55.4-32V324z"
   id="path92" />
<path
   class="st8"
   d="M623.8,344.3l103.6,59.8v10.2l-103.6-59.8V344.3z"
   id="path94" />
<path
   class="st0"
   d="M615.2,327c0,6.9-4.1,10.2-9.2,7.3c-5.1-2.9-9.2-10.9-9.2-17.9c0-6.9,4.1-10.2,9.2-7.3  C611.1,312.1,615.2,320.1,615.2,327z"
   id="path96"
   style="fill:#fdedaf;fill-opacity:1" />
</svg>
