<svg data-name="Layer 1" xmlns="http://www.w3.org/2000/svg" viewBox="0 0 874.419 713.509"><path style="fill:#fbcd22;fill-opacity:1" transform="matrix(1.1724 0 0 1.025 -26.426 -43.163)" d="M768.38 42.11H22.54l373.34 694.78z"/><path style="fill:#fff;fill-opacity:1" transform="matrix(.70313 0 0 .61473 159.152 -25.886)" d="M768.38 42.11H22.54l373.34 694.78z"/><path d="m695.324 2-105.44 164.128-79.741 124.4-10.077 15.827c11.211 7.084 54.615 35.386 67.74 38.235 19.969 4.724 46.919-5.66 49.558-28.44.573-12.035-.987-27.133 11.844-33.129 14.051-6.009 26.777-14.215 11.589-28.565 47.352-4.643-3.224-38.496 30.934-52.812 26.443-7.333 50.267-7.265 29.396-41.061-53.39-94.494-14.36-46.67-5.803-158.583Z" style="fill:#fff;fill-opacity:1;stroke-width:1.04426"/><path style="fill:#3f2680;fill-opacity:1;stroke:none;stroke-width:20.1307;stroke-miterlimit:4;stroke-dasharray:none;stroke-opacity:1" transform="matrix(.23315 0 0 .20738 344.745 -8.733)" d="m22.54 42.11 373.34 694.78 372.5-694.78z"/></svg>