<svg data-name="Layer 1" width="875" height="712" xmlns="http://www.w3.org/2000/svg"><path style="fill:#fbcd22;fill-opacity:1;stroke-width:1.09647" d="M875 0H0l437.993 712z"/><path style="fill:#3f2680;fill-opacity:1;stroke-width:.657102" d="M699-.5H175l262.295 427z"/><path d="m695.324 1.5-105.44 164.128-79.74 124.4-10.078 15.827c11.211 7.084 54.615 35.386 67.74 38.235 19.97 4.724 46.92-5.66 49.558-28.44.573-12.035-.987-27.133 11.844-33.129 14.051-6.009 26.777-14.215 11.59-28.565 47.351-4.643-3.225-38.496 30.933-52.812 26.443-7.333 50.267-7.265 29.396-41.06-53.39-94.495-14.36-46.67-5.803-158.584z" style="fill:#3f2680;fill-opacity:1;stroke-width:1.04426"/><path style="fill:#fbcd22;fill-opacity:1;stroke:none;stroke-width:4.42659;stroke-miterlimit:4;stroke-dasharray:none;stroke-opacity:1" d="m350-.5 87.098 144L524-.5Z"/></svg>