<?xml version="1.0" encoding="UTF-8" standalone="no"?>
<svg
   data-name="Layer 1"
   viewBox="0 0 874.419 713.509"
   version="1.1"
   id="svg10"
   sodipodi:docname="valueheads-favicon2.svg"
   inkscape:version="1.1.1 (3bf5ae0d25, 2021-09-20)"
   xmlns:inkscape="http://www.inkscape.org/namespaces/inkscape"
   xmlns:sodipodi="http://sodipodi.sourceforge.net/DTD/sodipodi-0.dtd"
   xmlns="http://www.w3.org/2000/svg"
   xmlns:svg="http://www.w3.org/2000/svg">
  <defs
     id="defs14" />
  <sodipodi:namedview
     id="namedview12"
     pagecolor="#ffffff"
     bordercolor="#666666"
     borderopacity="1.0"
     inkscape:pageshadow="2"
     inkscape:pageopacity="0.0"
     inkscape:pagecheckerboard="0"
     showgrid="false"
     inkscape:zoom="0.74000471"
     inkscape:cx="387.1597"
     inkscape:cy="252.02542"
     inkscape:window-width="1128"
     inkscape:window-height="694"
     inkscape:window-x="0"
     inkscape:window-y="0"
     inkscape:window-maximized="1"
     inkscape:current-layer="svg10" />
  <path
     style="fill:#fbcd22;fill-opacity:1"
     transform="matrix(1.1724 0 0 1.025 -26.426 -43.163)"
     d="M768.38 42.11H22.54l373.34 694.78z"
     id="path2" />
  <path
     style="fill:#3f2680;fill-opacity:1"
     transform="matrix(.70313 0 0 .61473 159.152 -25.886)"
     d="M768.38 42.11H22.54l373.34 694.78z"
     id="path4" />
  <path
     d="m695.324 2-105.44 164.128-79.741 124.4-10.077 15.827c11.211 7.084 54.615 35.386 67.74 38.235 19.969 4.724 46.919-5.66 49.558-28.44.573-12.035-.987-27.133 11.844-33.129 14.051-6.009 26.777-14.215 11.589-28.565 47.352-4.643-3.224-38.496 30.934-52.812 26.443-7.333 50.267-7.265 29.396-41.061-53.39-94.494-14.36-46.67-5.803-158.583Z"
     style="fill:#3f2680;fill-opacity:1;stroke-width:1.04426"
     id="path6" />
  <path
     style="fill:#ffffff;fill-opacity:1;stroke:none;stroke-width:20.1307;stroke-miterlimit:4;stroke-dasharray:none;stroke-opacity:1"
     transform="matrix(.23315 0 0 .20738 344.745 -8.733)"
     d="m22.54 42.11 373.34 694.78 372.5-694.78z"
     id="path8" />
</svg>
