<?xml version="1.0" standalone="no"?>
<!DOCTYPE svg PUBLIC "-//W3C//DTD SVG 20010904//EN"
 "http://www.w3.org/TR/2001/REC-SVG-20010904/DTD/svg10.dtd">
<svg version="1.0" xmlns="http://www.w3.org/2000/svg"
 width="874.000000pt" height="874.000000pt" viewBox="0 0 874.000000 874.000000"
 preserveAspectRatio="xMidYMid meet">
<metadata>
Created by potrace 1.14, written by Peter Selinger 2001-2017
</metadata>
<g transform="translate(0.000000,874.000000) scale(0.100000,-0.100000)"
fill="#000000" stroke="none">
<path d="M17 7903 c9 -16 22 -35 29 -43 7 -8 14 -19 15 -25 2 -11 34 -64 80
-133 16 -24 29 -45 29 -48 0 -3 13 -24 28 -47 15 -23 34 -54 41 -69 8 -16 18
-28 23 -28 4 0 8 -4 8 -10 0 -9 89 -160 101 -170 3 -3 9 -12 12 -20 4 -8 18
-33 32 -55 14 -22 28 -47 32 -55 4 -8 28 -47 55 -87 26 -40 48 -77 48 -82 0
-5 3 -11 8 -13 4 -1 14 -15 22 -30 8 -16 53 -90 100 -165 47 -76 87 -142 90
-148 3 -5 22 -36 43 -67 20 -31 37 -62 37 -68 0 -5 3 -10 8 -10 4 0 16 -17 27
-37 11 -21 39 -67 62 -103 24 -36 43 -71 43 -77 0 -7 5 -13 10 -13 6 0 10 -7
10 -15 0 -8 5 -15 10 -15 6 0 10 -7 10 -15 0 -8 5 -15 10 -15 6 0 10 -5 10
-10 0 -10 11 -28 87 -147 18 -28 33 -56 33 -62 0 -6 5 -11 10 -11 6 0 10 -5
10 -11 0 -5 18 -37 40 -69 22 -32 40 -61 40 -64 0 -3 34 -61 76 -128 42 -68
96 -154 120 -193 24 -38 47 -75 51 -80 4 -6 17 -26 27 -45 11 -19 34 -58 53
-86 18 -28 33 -54 33 -58 0 -4 4 -12 10 -19 14 -17 80 -118 80 -123 0 -5 112
-187 120 -194 3 -3 14 -21 24 -40 11 -19 34 -58 53 -86 18 -28 33 -54 33 -58
0 -4 5 -12 11 -19 5 -7 64 -100 129 -207 66 -107 124 -200 130 -207 5 -7 10
-15 10 -17 0 -3 16 -30 35 -60 19 -30 35 -59 35 -65 0 -5 4 -11 8 -13 5 -1 31
-40 58 -85 73 -121 213 -350 309 -503 47 -74 89 -144 95 -155 5 -11 35 -60 66
-110 31 -49 64 -102 73 -117 9 -15 49 -80 89 -144 39 -64 72 -120 72 -125 0
-5 5 -9 10 -9 6 0 10 -4 10 -10 0 -8 32 -63 70 -120 43 -65 150 -244 150 -251
0 -5 5 -9 10 -9 6 0 10 -4 10 -10 0 -5 17 -36 37 -67 38 -58 54 -86 80 -134 7
-15 20 -32 28 -39 8 -7 15 -16 15 -20 0 -4 17 -35 38 -69 20 -33 75 -122 121
-198 46 -76 90 -145 96 -153 7 -8 23 -35 36 -60 13 -25 27 -47 30 -50 4 -3 21
-30 38 -60 18 -30 50 -82 71 -115 22 -33 46 -73 55 -90 8 -16 33 -57 54 -90
22 -33 46 -71 54 -85 20 -36 111 -184 117 -190 3 -3 12 -17 20 -32 37 -68 143
-239 150 -243 4 -3 23 19 41 48 17 28 42 68 54 87 22 35 196 317 218 354 7 11
26 43 43 70 17 28 33 59 37 68 3 10 11 18 17 18 5 0 10 5 10 11 0 6 28 56 63
110 34 55 67 107 72 117 32 57 100 168 107 172 4 3 12 17 17 30 6 14 29 52 51
85 22 33 46 74 55 90 17 34 239 394 253 410 5 6 11 15 13 20 4 9 100 168 141
233 9 15 23 38 31 52 14 26 173 283 302 490 39 63 74 122 78 130 4 8 15 27 25
41 9 15 44 71 77 125 32 55 62 101 65 104 3 3 10 14 16 25 26 48 39 70 44 75
6 6 17 24 65 105 20 33 54 89 75 124 22 34 40 67 40 72 0 5 4 9 9 9 5 0 11 8
15 18 3 9 19 37 36 62 16 25 34 54 39 65 6 11 35 58 66 105 30 47 60 97 66
113 6 15 15 27 20 27 5 0 9 4 9 10 0 5 19 40 43 78 48 77 39 63 148 242 46 74
86 137 91 138 4 2 8 7 8 12 0 8 131 228 185 310 12 19 76 123 141 230 121 199
157 257 172 275 4 6 11 17 14 26 3 9 27 48 52 88 25 39 46 76 46 81 0 6 5 10
10 10 6 0 10 5 10 11 0 6 12 29 28 52 15 23 32 51 39 62 18 30 216 353 233
380 8 13 28 45 44 72 33 54 203 331 226 367 20 31 87 144 108 181 9 16 25 38
34 49 10 11 18 23 18 28 0 4 20 39 45 78 25 39 45 75 45 80 0 6 4 10 9 10 5 0
12 8 15 18 7 19 13 29 69 115 20 31 37 59 37 61 0 3 32 54 70 115 39 60 70
115 70 120 0 6 4 11 9 11 5 0 13 10 17 23 4 12 10 24 13 27 4 3 17 22 30 43
l23 37 -4371 0 -4371 0 17 -27z"/>
</g>
</svg>
