<?xml version="1.0" standalone="no"?>
<!DOCTYPE svg PUBLIC "-//W3C//DTD SVG 20010904//EN"
 "http://www.w3.org/TR/2001/REC-SVG-20010904/DTD/svg10.dtd">
<svg version="1.0" xmlns="http://www.w3.org/2000/svg"
 width="875.000000pt" height="875.000000pt" viewBox="0 0 875.000000 875.000000"
 preserveAspectRatio="xMidYMid meet">
<metadata>
Created by potrace 1.14, written by Peter Selinger 2001-2017
</metadata>
<g transform="translate(0.000000,875.000000) scale(0.100000,-0.100000)"
fill="#000000" stroke="none">
<path d="M17 7913 c9 -16 22 -35 29 -43 7 -8 14 -19 15 -25 2 -11 34 -64 80
-133 16 -24 29 -45 29 -48 0 -3 12 -24 28 -47 15 -23 32 -51 39 -62 59 -98
159 -261 163 -265 8 -8 29 -43 45 -75 9 -16 38 -64 65 -105 28 -41 53 -82 57
-90 4 -8 33 -56 65 -107 32 -51 58 -97 58 -103 0 -5 4 -10 9 -10 5 0 16 -15
25 -32 9 -18 26 -49 39 -70 155 -253 268 -435 277 -445 5 -7 10 -14 10 -17 0
-3 29 -51 65 -108 36 -57 65 -108 65 -114 0 -7 7 -14 15 -18 8 -3 15 -10 15
-15 0 -7 183 -311 230 -381 6 -8 16 -26 23 -40 6 -14 20 -34 29 -44 10 -11 18
-26 18 -33 0 -7 5 -13 10 -13 6 0 10 -4 10 -9 0 -9 211 -357 230 -378 5 -7 10
-14 10 -17 0 -2 18 -33 40 -67 22 -35 43 -71 47 -79 4 -8 11 -19 15 -25 12
-14 308 -497 308 -502 0 -2 11 -19 25 -37 14 -18 25 -36 25 -40 0 -4 20 -37
43 -74 24 -37 94 -150 157 -252 62 -102 121 -197 131 -212 11 -15 24 -39 29
-53 5 -14 14 -25 20 -25 5 0 10 -6 10 -14 0 -8 6 -21 13 -28 7 -7 16 -20 20
-28 4 -8 17 -31 29 -51 13 -20 50 -81 83 -135 33 -55 79 -128 102 -164 24 -36
43 -71 43 -77 0 -7 4 -13 9 -13 5 0 14 -13 21 -30 7 -16 16 -30 21 -30 5 0 9
-5 9 -10 0 -6 27 -53 60 -106 33 -52 60 -99 60 -105 0 -5 4 -9 9 -9 5 0 11 -8
15 -17 3 -10 14 -30 23 -45 10 -14 39 -61 65 -105 26 -43 51 -82 55 -88 5 -5
23 -35 41 -65 42 -71 51 -86 84 -137 16 -23 28 -46 28 -51 0 -6 3 -12 8 -14 9
-4 72 -107 72 -119 0 -5 3 -9 8 -9 4 0 12 -9 17 -19 6 -11 18 -35 29 -55 10
-20 22 -36 27 -36 5 0 9 -5 9 -11 0 -10 185 -314 215 -354 8 -10 15 -24 15
-30 0 -5 14 -28 30 -49 17 -22 30 -46 30 -53 0 -7 5 -13 10 -13 6 0 10 -7 10
-15 0 -8 4 -15 9 -15 5 0 11 -8 14 -17 3 -10 33 -61 67 -113 33 -52 76 -122
95 -155 51 -85 59 -99 65 -105 8 -8 29 -43 43 -70 6 -14 15 -29 20 -35 4 -5
40 -62 78 -125 39 -63 78 -126 86 -139 l15 -23 14 23 c7 13 18 35 24 49 6 13
15 27 19 30 4 3 24 34 45 70 21 36 49 81 61 100 12 19 73 118 135 220 62 102
124 202 138 224 36 52 51 78 58 98 3 10 10 18 14 18 4 0 10 8 13 18 6 17 38
73 47 82 3 3 26 39 50 80 24 41 47 77 50 80 9 9 41 65 47 83 3 9 9 17 13 17 4
0 13 14 20 30 7 17 16 30 21 30 5 0 8 3 7 7 -3 11 65 123 74 123 5 0 8 9 8 20
0 11 4 20 8 20 5 0 14 10 19 23 6 13 27 49 47 80 20 31 36 60 35 63 0 4 3 10
8 13 13 9 123 189 123 201 0 6 5 10 10 10 6 0 10 7 10 15 0 8 5 15 10 15 6 0
10 5 10 12 0 6 10 25 23 42 12 17 33 51 46 76 13 25 29 52 36 60 14 17 148
237 178 293 12 20 24 37 29 37 4 0 8 4 8 9 0 9 76 138 133 224 15 23 30 50 33
59 4 10 10 18 15 18 5 0 9 4 9 9 0 5 30 58 67 118 36 59 89 146 117 193 28 47
53 87 56 90 3 3 36 55 72 115 36 61 95 157 131 215 103 166 221 359 234 383 7
12 17 29 23 37 30 44 260 423 260 429 0 5 9 16 20 26 11 10 20 22 20 27 0 5
27 51 60 104 33 52 60 99 60 105 0 5 5 9 11 9 5 0 7 5 4 10 -3 6 -1 10 5 10 6
0 15 11 20 25 5 14 18 38 29 53 40 58 201 324 201 333 0 5 4 9 9 9 5 0 13 10
17 22 3 12 10 26 15 32 19 22 59 87 59 95 0 4 9 17 20 29 12 12 18 22 14 22
-3 0 5 15 18 33 13 17 28 39 31 47 4 8 16 29 27 45 11 17 23 37 27 45 3 8 9
17 12 20 3 3 15 21 25 40 11 19 23 37 26 40 4 3 13 17 21 32 8 15 44 76 80
135 139 226 226 369 240 393 8 14 16 27 19 30 3 3 44 68 90 145 46 77 90 146
97 153 7 7 13 20 13 28 0 8 3 14 8 14 4 0 12 10 18 23 6 12 46 80 90 150 43
71 88 143 99 161 85 142 111 181 117 184 5 2 8 8 8 13 0 4 29 56 65 114 l65
105 -4375 0 -4375 0 17 -27z"/>
</g>
</svg>
