<?xml version="1.0" standalone="no"?>
<!DOCTYPE svg PUBLIC "-//W3C//DTD SVG 20010904//EN"
 "http://www.w3.org/TR/2001/REC-SVG-20010904/DTD/svg10.dtd">
<svg version="1.0" xmlns="http://www.w3.org/2000/svg"
 width="875.000000pt" height="875.000000pt" viewBox="0 0 875.000000 875.000000"
 preserveAspectRatio="xMidYMid meet">
<metadata>
Created by potrace 1.14, written by Peter Selinger 2001-2017
</metadata>
<g transform="translate(0.000000,875.000000) scale(0.100000,-0.100000)"
fill="#000000" stroke="none">
<path d="M78 7803 c44 -71 260 -423 482 -783 222 -360 410 -667 419 -682 34
-58 429 -700 467 -758 19 -30 120 -194 173 -282 15 -24 75 -122 128 -207 12
-20 38 -63 58 -96 20 -33 54 -89 77 -125 22 -36 48 -77 57 -92 18 -31 337
-549 515 -838 135 -219 229 -370 311 -505 51 -82 117 -190 148 -240 31 -49 79
-128 108 -175 28 -47 63 -104 77 -127 40 -63 279 -453 299 -488 10 -16 21 -32
24 -35 3 -3 21 -31 40 -63 19 -32 39 -66 44 -76 20 -33 189 -307 211 -341 12
-19 142 -231 289 -470 320 -519 292 -475 333 -544 19 -31 37 -56 40 -56 7 0
85 123 287 455 53 88 108 176 120 195 12 19 109 177 215 350 105 173 199 326
209 340 9 14 50 79 90 145 40 66 78 129 84 139 23 37 142 232 154 252 25 41
801 1303 825 1342 9 15 23 38 31 52 16 29 169 277 202 330 50 78 80 126 85
135 4 9 76 126 101 165 5 8 166 272 358 585 192 314 365 595 383 625 56 89
419 681 437 711 9 16 43 72 77 126 121 194 209 338 214 348 3 5 12 21 21 35
56 86 309 503 309 510 0 5 3 10 8 12 4 2 42 60 84 131 l78 127 -884 0 -884 0
-17 -26 c-10 -16 -23 -78 -35 -167 -31 -241 -51 -316 -165 -632 -31 -86 -35
-109 -31 -160 9 -110 64 -238 242 -560 107 -195 125 -253 98 -310 -24 -51 -80
-80 -231 -119 -138 -36 -164 -46 -201 -80 -56 -50 -66 -112 -37 -244 8 -40 15
-84 15 -98 0 -67 -65 -120 -161 -131 -27 -3 -49 -8 -49 -11 0 -3 11 -20 25
-38 71 -93 31 -163 -138 -243 -52 -25 -92 -71 -108 -122 -5 -19 -13 -86 -18
-150 -7 -100 -12 -124 -37 -168 -49 -92 -138 -150 -268 -178 -156 -33 -269 10
-646 247 -70 44 -131 80 -136 80 -5 0 -166 -257 -358 -570 -211 -344 -353
-567 -359 -561 -5 5 -593 960 -1307 2122 l-1298 2114 -881 3 -881 2 78 -127z"/>
<path d="M3503 7923 c47 -82 853 -1411 861 -1420 10 -10 326 504 855 1388 l23
39 -872 0 c-479 0 -869 -3 -867 -7z"/>
</g>
</svg>
